<?xml version="1.0" standalone="no"?>
<!DOCTYPE svg PUBLIC "-//W3C//DTD SVG 20010904//EN"
 "http://www.w3.org/TR/2001/REC-SVG-20010904/DTD/svg10.dtd">
<svg version="1.0" xmlns="http://www.w3.org/2000/svg"
 width="1280.000000pt" height="1216.000000pt" viewBox="0 0 1280.000000 1216.000000"
 preserveAspectRatio="xMidYMid meet">
<g transform="translate(0.000000,1216.000000) scale(0.100000,-0.100000)"
fill="#000000" stroke="none">
<path d="M6200 12150 c-36 -5 -126 -14 -200 -20 -614 -51 -1150 -247 -1545
-565 -373 -300 -642 -720 -791 -1238 -96 -333 -143 -738 -130 -1120 11 -327
33 -458 102 -602 31 -66 128 -220 159 -255 12 -14 13 -34 3 -136 -15 -157 -15
-669 0 -859 25 -301 77 -700 128 -970 58 -311 73 -410 63 -416 -16 -9 67 -381
89 -397 24 -19 438 -306 552 -383 l95 -65 -2 -59 c-4 -119 -66 -353 -140 -535
-66 -160 -181 -387 -200 -394 -10 -4 -490 -108 -1068 -232 -2003 -429 -1839
-392 -1908 -431 -322 -182 -572 -467 -777 -888 -153 -314 -242 -574 -425
-1255 -113 -420 -168 -607 -190 -651 -8 -15 -15 -34 -14 -41 1 -15 335 -335
419 -402 86 -68 188 -131 301 -186 l104 -50 5548 0 5549 0 83 29 c178 63 259
116 540 351 83 69 174 143 203 165 28 21 52 43 52 49 0 5 -13 36 -29 70 -33
72 -122 300 -330 854 -228 604 -342 870 -502 1166 -248 460 -508 744 -799 873
-40 17 -384 86 -1265 254 -665 126 -1284 244 -1375 262 l-165 32 -8 35 c-18
81 -197 1082 -197 1103 0 16 40 56 148 150 143 123 253 229 222 212 -8 -4 -3
5 11 21 33 36 32 32 68 239 97 556 154 1142 210 2170 l17 320 46 75 c91 151
144 274 182 427 112 451 70 1078 -106 1581 -320 913 -1012 1508 -1938 1667
-239 41 -643 64 -790 45z"/>
</g>
</svg>
